<svg xmlns="http://www.w3.org/2000/svg" width="1280" height="640" viewBox="0 0 1280 640">
  <defs>
    <linearGradient id="bg" x1="0%" y1="0%" x2="100%" y2="100%">
      <stop offset="0%" stop-color="#04060E"/>
      <stop offset="50%" stop-color="#090E1E"/>
      <stop offset="100%" stop-color="#0C1325"/>
    </linearGradient>
    <linearGradient id="accent" x1="0%" y1="0%" x2="100%" y2="0%">
      <stop offset="0%" stop-color="#0098EA"/>
      <stop offset="100%" stop-color="#00D4FF"/>
    </linearGradient>
    <linearGradient id="arrow-1" x1="0%" y1="0%" x2="100%" y2="0%">
      <stop offset="0%" stop-color="#0098EA"/>
      <stop offset="100%" stop-color="#F59E0B"/>
    </linearGradient>
    <linearGradient id="arrow-2" x1="0%" y1="0%" x2="100%" y2="0%">
      <stop offset="0%" stop-color="#F59E0B"/>
      <stop offset="100%" stop-color="#00D4FF"/>
    </linearGradient>
    <linearGradient id="arrow-3" x1="0%" y1="0%" x2="100%" y2="0%">
      <stop offset="0%" stop-color="#00D4FF"/>
      <stop offset="100%" stop-color="#22C55E"/>
    </linearGradient>
    <radialGradient id="center-glow" cx="50%" cy="38%" r="45%">
      <stop offset="0%" stop-color="#0098EA" stop-opacity="0.1"/>
      <stop offset="100%" stop-color="#0098EA" stop-opacity="0"/>
    </radialGradient>
    <radialGradient id="glow-blue" cx="50%" cy="50%" r="50%">
      <stop offset="0%" stop-color="#0098EA" stop-opacity="0.15"/>
      <stop offset="100%" stop-color="#0098EA" stop-opacity="0"/>
    </radialGradient>
    <radialGradient id="glow-amber" cx="50%" cy="50%" r="50%">
      <stop offset="0%" stop-color="#F59E0B" stop-opacity="0.12"/>
      <stop offset="100%" stop-color="#F59E0B" stop-opacity="0"/>
    </radialGradient>
    <radialGradient id="glow-cyan" cx="50%" cy="50%" r="50%">
      <stop offset="0%" stop-color="#00D4FF" stop-opacity="0.12"/>
      <stop offset="100%" stop-color="#00D4FF" stop-opacity="0"/>
    </radialGradient>
    <radialGradient id="glow-green" cx="50%" cy="50%" r="50%">
      <stop offset="0%" stop-color="#22C55E" stop-opacity="0.12"/>
      <stop offset="100%" stop-color="#22C55E" stop-opacity="0"/>
    </radialGradient>
    <filter id="text-glow">
      <feGaussianBlur stdDeviation="6" result="blur"/>
      <feMerge><feMergeNode in="blur"/><feMergeNode in="SourceGraphic"/></feMerge>
    </filter>
    <filter id="soft-glow">
      <feGaussianBlur stdDeviation="3" result="blur"/>
      <feMerge><feMergeNode in="blur"/><feMergeNode in="SourceGraphic"/></feMerge>
    </filter>
  </defs>

  <!-- Background -->
  <rect width="1280" height="640" fill="url(#bg)"/>
  <ellipse cx="640" cy="250" rx="550" ry="320" fill="url(#center-glow)"/>

  <!-- Subtle scan lines -->
  <g opacity="0.02" stroke="#0098EA" stroke-width="0.5">
    <line x1="0" y1="80" x2="1280" y2="80"/>
    <line x1="0" y1="160" x2="1280" y2="160"/>
    <line x1="0" y1="340" x2="1280" y2="340"/>
    <line x1="0" y1="450" x2="1280" y2="450"/>
    <line x1="0" y1="540" x2="1280" y2="540"/>
  </g>

  <!-- Subtle hex grid -->
  <g opacity="0.02" stroke="#0098EA" stroke-width="0.6" fill="none">
    <polygon points="80,100 110,83 140,100 140,134 110,151 80,134"/>
    <polygon points="140,100 170,83 200,100 200,134 170,151 140,134"/>
    <polygon points="1080,80 1110,63 1140,80 1140,114 1110,131 1080,114"/>
    <polygon points="1140,80 1170,63 1200,80 1200,114 1170,131 1140,114"/>
    <polygon points="60,480 90,463 120,480 120,514 90,531 60,514"/>
    <polygon points="1140,500 1170,483 1200,500 1200,534 1170,551 1140,534"/>
  </g>

  <!-- Floating particles -->
  <g opacity="0.3">
    <circle cx="95" cy="130" r="1.5" fill="#0098EA"/>
    <circle cx="230" cy="520" r="1" fill="#00D4FF"/>
    <circle cx="380" cy="70" r="1.5" fill="#0098EA"/>
    <circle cx="520" cy="580" r="1" fill="#00D4FF"/>
    <circle cx="760" cy="55" r="1.5" fill="#0098EA"/>
    <circle cx="920" cy="600" r="1" fill="#00D4FF"/>
    <circle cx="1100" cy="95" r="1.5" fill="#0098EA"/>
    <circle cx="1200" cy="530" r="1" fill="#00D4FF"/>
    <circle cx="450" cy="150" r="0.8" fill="#0098EA"/>
    <circle cx="850" cy="580" r="0.8" fill="#0098EA"/>
  </g>

  <!-- Network constellation -->
  <g opacity="0.06" stroke="#0098EA" stroke-width="0.8">
    <line x1="60" y1="300" x2="130" y2="260"/>
    <line x1="130" y1="260" x2="100" y2="360"/>
    <line x1="100" y1="360" x2="60" y2="300"/>
    <line x1="1150" y1="280" x2="1220" y2="240"/>
    <line x1="1220" y1="240" x2="1230" y2="340"/>
    <line x1="1230" y1="340" x2="1150" y2="280"/>
  </g>
  <g opacity="0.12">
    <circle cx="60" cy="300" r="2" fill="#0098EA"/>
    <circle cx="130" cy="260" r="1.5" fill="#0098EA"/>
    <circle cx="100" cy="360" r="2" fill="#0098EA"/>
    <circle cx="1150" cy="280" r="2" fill="#0098EA"/>
    <circle cx="1220" cy="240" r="1.5" fill="#0098EA"/>
    <circle cx="1230" cy="340" r="2" fill="#0098EA"/>
  </g>

  <!-- ============ HEADER ============ -->

  <!-- TON Diamond Logo (centered, small) -->
  <g transform="translate(620, 8) scale(0.72)" filter="url(#soft-glow)">
    <path d="M28 56C43.464 56 56 43.464 56 28C56 12.536 43.464 0 28 0C12.536 0 0 12.536 0 28C0 43.464 12.536 56 28 56Z" fill="#0098EA"/>
    <path d="M37.5603 15.6277H18.4386C14.9228 15.6277 12.6944 19.4202 14.4632 22.4861L26.2644 42.9409C27.0345 44.2765 28.9644 44.2765 29.7345 42.9409L41.5381 22.4861C43.3045 19.4251 41.0761 15.6277 37.5627 15.6277H37.5603ZM26.2548 36.8068L23.6847 31.8327L17.4833 20.7414C17.0742 20.0315 17.5795 19.1218 18.4362 19.1218H26.2524V36.8092L26.2548 36.8068ZM38.5108 20.739L32.3118 31.8351L29.7417 36.8068V19.1194H37.5579C38.4146 19.1194 38.9199 20.0291 38.5108 20.739Z" fill="white"/>
  </g>

  <!-- Title -->
  <text x="640" y="90" text-anchor="middle" font-family="'Inter','SF Pro Display',-apple-system,BlinkMacSystemFont,sans-serif" font-size="58" font-weight="800" letter-spacing="-2" filter="url(#text-glow)">
    <tspan fill="#FFFFFF">ton-</tspan><tspan fill="url(#accent)">x402</tspan>
  </text>

  <!-- Subtitle -->
  <text x="640" y="120" text-anchor="middle" font-family="'Inter',-apple-system,sans-serif" font-size="19" font-weight="400" fill="#7A8399" letter-spacing="0.3">HTTP-native machine payments for the AI agent era</text>

  <!-- "First x402 on TON" badge -->
  <g transform="translate(1065, 16)">
    <rect x="0" y="0" width="185" height="30" rx="15" fill="rgba(245,158,11,0.08)" stroke="rgba(245,158,11,0.3)" stroke-width="1"/>
    <text x="93" y="20" text-anchor="middle" font-family="'Inter',sans-serif" font-size="12" font-weight="700" fill="#F59E0B" letter-spacing="0.5">First x402 on TON</text>
  </g>

  <!-- ============ FLOW DIAGRAM ============ -->

  <!-- Card 1: AI Agent (Blue) -->
  <ellipse cx="250" cy="250" rx="130" ry="110" fill="url(#glow-blue)"/>
  <rect x="150" y="165" width="200" height="170" rx="14" fill="rgba(0,152,234,0.06)" stroke="rgba(0,152,234,0.25)" stroke-width="1.2"/>
  <rect x="150" y="165" width="200" height="4" rx="2" fill="#0098EA"/>
  <!-- Step badge -->
  <circle cx="168" cy="183" r="12" fill="rgba(0,152,234,0.15)" stroke="rgba(0,152,234,0.3)" stroke-width="0.8"/>
  <text x="168" y="187" text-anchor="middle" font-family="'Inter',sans-serif" font-size="11" font-weight="700" fill="#0098EA">1</text>
  <!-- Robot icon -->
  <g transform="translate(250, 218)">
    <rect x="-20" y="-16" width="40" height="30" rx="8" fill="none" stroke="#0098EA" stroke-width="2.2"/>
    <circle cx="-8" cy="-3" r="4.5" fill="#0098EA"/>
    <circle cx="8" cy="-3" r="4.5" fill="#0098EA"/>
    <line x1="0" y1="-16" x2="0" y2="-27" stroke="#0098EA" stroke-width="2.2"/>
    <circle cx="0" cy="-30" r="3.5" fill="#0098EA"/>
    <line x1="-12" y1="14" x2="-20" y2="22" stroke="#0098EA" stroke-width="1.5" stroke-linecap="round"/>
    <line x1="12" y1="14" x2="20" y2="22" stroke="#0098EA" stroke-width="1.5" stroke-linecap="round"/>
  </g>
  <!-- Labels -->
  <text x="250" y="275" text-anchor="middle" font-family="'Inter',sans-serif" font-size="17" font-weight="700" fill="#FFFFFF">AI Agent</text>
  <text x="250" y="297" text-anchor="middle" font-family="'SF Mono','JetBrains Mono',monospace" font-size="12" fill="#5B6B7F">GET /api/data</text>
  <text x="250" y="318" text-anchor="middle" font-family="'Inter',sans-serif" font-size="11" fill="#4A5568">requests premium API</text>

  <!-- Arrow 1 -->
  <line x1="356" y1="250" x2="402" y2="250" stroke="url(#arrow-1)" stroke-width="2.5" filter="url(#soft-glow)"/>
  <polygon points="408,250 396,243 396,257" fill="#F59E0B" opacity="0.9"/>

  <!-- Card 2: HTTP 402 (Amber) -->
  <ellipse cx="510" cy="250" rx="130" ry="110" fill="url(#glow-amber)"/>
  <rect x="410" y="165" width="200" height="170" rx="14" fill="rgba(245,158,11,0.05)" stroke="rgba(245,158,11,0.25)" stroke-width="1.2"/>
  <rect x="410" y="165" width="200" height="4" rx="2" fill="#F59E0B"/>
  <circle cx="428" cy="183" r="12" fill="rgba(245,158,11,0.15)" stroke="rgba(245,158,11,0.3)" stroke-width="0.8"/>
  <text x="428" y="187" text-anchor="middle" font-family="'Inter',sans-serif" font-size="11" font-weight="700" fill="#F59E0B">2</text>
  <!-- 402 icon -->
  <text x="510" y="230" text-anchor="middle" font-family="'SF Mono','JetBrains Mono',monospace" font-size="44" font-weight="800" fill="#F59E0B" opacity="0.85" filter="url(#soft-glow)">402</text>
  <text x="510" y="275" text-anchor="middle" font-family="'Inter',sans-serif" font-size="17" font-weight="700" fill="#FFFFFF">Payment Required</text>
  <text x="510" y="297" text-anchor="middle" font-family="'SF Mono','JetBrains Mono',monospace" font-size="12" fill="#5B6B7F">X-Payment: 0.01 TON</text>
  <text x="510" y="318" text-anchor="middle" font-family="'Inter',sans-serif" font-size="11" fill="#4A5568">server responds with price</text>

  <!-- Arrow 2 -->
  <line x1="616" y1="250" x2="662" y2="250" stroke="url(#arrow-2)" stroke-width="2.5" filter="url(#soft-glow)"/>
  <polygon points="668,250 656,243 656,257" fill="#00D4FF" opacity="0.9"/>

  <!-- Card 3: TON Payment (Cyan) -->
  <ellipse cx="770" cy="250" rx="130" ry="110" fill="url(#glow-cyan)"/>
  <rect x="670" y="165" width="200" height="170" rx="14" fill="rgba(0,212,255,0.05)" stroke="rgba(0,212,255,0.25)" stroke-width="1.2"/>
  <rect x="670" y="165" width="200" height="4" rx="2" fill="#00D4FF"/>
  <circle cx="688" cy="183" r="12" fill="rgba(0,212,255,0.15)" stroke="rgba(0,212,255,0.3)" stroke-width="0.8"/>
  <text x="688" y="187" text-anchor="middle" font-family="'Inter',sans-serif" font-size="11" font-weight="700" fill="#00D4FF">3</text>
  <!-- TON Diamond icon -->
  <g transform="translate(753, 197) scale(0.6)" filter="url(#soft-glow)">
    <path d="M28 56C43.464 56 56 43.464 56 28C56 12.536 43.464 0 28 0C12.536 0 0 12.536 0 28C0 43.464 12.536 56 28 56Z" fill="#00D4FF"/>
    <path d="M37.5603 15.6277H18.4386C14.9228 15.6277 12.6944 19.4202 14.4632 22.4861L26.2644 42.9409C27.0345 44.2765 28.9644 44.2765 29.7345 42.9409L41.5381 22.4861C43.3045 19.4251 41.0761 15.6277 37.5627 15.6277H37.5603ZM26.2548 36.8068L23.6847 31.8327L17.4833 20.7414C17.0742 20.0315 17.5795 19.1218 18.4362 19.1218H26.2524V36.8092L26.2548 36.8068ZM38.5108 20.739L32.3118 31.8351L29.7417 36.8068V19.1194H37.5579C38.4146 19.1194 38.9199 20.0291 38.5108 20.739Z" fill="white"/>
  </g>
  <text x="770" y="275" text-anchor="middle" font-family="'Inter',sans-serif" font-size="17" font-weight="700" fill="#FFFFFF">TON Payment</text>
  <text x="770" y="297" text-anchor="middle" font-family="'SF Mono','JetBrains Mono',monospace" font-size="12" fill="#5B6B7F">~5s &#183; ~$0.01</text>
  <text x="770" y="318" text-anchor="middle" font-family="'Inter',sans-serif" font-size="11" fill="#4A5568">on-chain verification</text>

  <!-- Arrow 3 -->
  <line x1="876" y1="250" x2="922" y2="250" stroke="url(#arrow-3)" stroke-width="2.5" filter="url(#soft-glow)"/>
  <polygon points="928,250 916,243 916,257" fill="#22C55E" opacity="0.9"/>

  <!-- Card 4: 200 OK (Green) -->
  <ellipse cx="1030" cy="250" rx="130" ry="110" fill="url(#glow-green)"/>
  <rect x="930" y="165" width="200" height="170" rx="14" fill="rgba(34,197,94,0.05)" stroke="rgba(34,197,94,0.25)" stroke-width="1.2"/>
  <rect x="930" y="165" width="200" height="4" rx="2" fill="#22C55E"/>
  <circle cx="948" cy="183" r="12" fill="rgba(34,197,94,0.15)" stroke="rgba(34,197,94,0.3)" stroke-width="0.8"/>
  <text x="948" y="187" text-anchor="middle" font-family="'Inter',sans-serif" font-size="11" font-weight="700" fill="#22C55E">4</text>
  <!-- Checkmark icon -->
  <g transform="translate(1030, 215)">
    <circle r="22" fill="none" stroke="#22C55E" stroke-width="2.5"/>
    <polyline points="-10,1 -3,9 12,-9" fill="none" stroke="#22C55E" stroke-width="3.5" stroke-linecap="round" stroke-linejoin="round"/>
  </g>
  <text x="1030" y="275" text-anchor="middle" font-family="'Inter',sans-serif" font-size="17" font-weight="700" fill="#FFFFFF">200 OK</text>
  <text x="1030" y="297" text-anchor="middle" font-family="'SF Mono','JetBrains Mono',monospace" font-size="12" fill="#5B6B7F">data delivered</text>
  <text x="1030" y="318" text-anchor="middle" font-family="'Inter',sans-serif" font-size="11" fill="#4A5568">premium content unlocked</text>

  <!-- ============ METRICS BAR ============ -->

  <!-- Metric 1: 5 Packages -->
  <rect x="185" y="378" width="150" height="62" rx="12" fill="rgba(255,255,255,0.025)" stroke="rgba(255,255,255,0.06)" stroke-width="1"/>
  <text x="260" y="408" text-anchor="middle" font-family="'Inter',sans-serif" font-size="28" font-weight="800" fill="#FFFFFF">5</text>
  <text x="260" y="430" text-anchor="middle" font-family="'Inter',sans-serif" font-size="11" font-weight="500" fill="#6B7280" letter-spacing="0.5">PACKAGES</text>

  <!-- Metric 2: 34 Tests -->
  <rect x="365" y="378" width="150" height="62" rx="12" fill="rgba(34,197,94,0.03)" stroke="rgba(34,197,94,0.12)" stroke-width="1"/>
  <text x="440" y="408" text-anchor="middle" font-family="'Inter',sans-serif" font-size="28" font-weight="800" fill="#22C55E">34</text>
  <text x="440" y="430" text-anchor="middle" font-family="'Inter',sans-serif" font-size="11" font-weight="500" fill="#6B7280" letter-spacing="0.5">TESTS</text>

  <!-- Metric 3: 0 Core Deps -->
  <rect x="545" y="378" width="150" height="62" rx="12" fill="rgba(245,158,11,0.03)" stroke="rgba(245,158,11,0.12)" stroke-width="1"/>
  <text x="620" y="408" text-anchor="middle" font-family="'Inter',sans-serif" font-size="28" font-weight="800" fill="#F59E0B">0</text>
  <text x="620" y="430" text-anchor="middle" font-family="'Inter',sans-serif" font-size="11" font-weight="500" fill="#6B7280" letter-spacing="0.5">CORE DEPS</text>

  <!-- Metric 4: MCP Server -->
  <rect x="725" y="378" width="150" height="62" rx="12" fill="rgba(139,92,246,0.03)" stroke="rgba(139,92,246,0.12)" stroke-width="1"/>
  <text x="800" y="408" text-anchor="middle" font-family="'Inter',sans-serif" font-size="28" font-weight="800" fill="#8B5CF6">MCP</text>
  <text x="800" y="430" text-anchor="middle" font-family="'Inter',sans-serif" font-size="11" font-weight="500" fill="#6B7280" letter-spacing="0.5">AI TOOLS</text>

  <!-- Metric 5: 1B+ Users -->
  <rect x="905" y="378" width="150" height="62" rx="12" fill="rgba(0,152,234,0.03)" stroke="rgba(0,152,234,0.12)" stroke-width="1"/>
  <text x="980" y="408" text-anchor="middle" font-family="'Inter',sans-serif" font-size="28" font-weight="800" fill="#0098EA">1B+</text>
  <text x="980" y="430" text-anchor="middle" font-family="'Inter',sans-serif" font-size="11" font-weight="500" fill="#6B7280" letter-spacing="0.5">TON USERS</text>

  <!-- ============ CODE ONE-LINER ============ -->
  <g transform="translate(240, 478)">
    <rect x="0" y="0" width="800" height="50" rx="10" fill="rgba(6,10,20,0.85)" stroke="rgba(30,38,65,0.5)" stroke-width="1"/>
    <circle cx="20" cy="13" r="4" fill="#FF5F57" opacity="0.6"/>
    <circle cx="33" cy="13" r="4" fill="#FFBD2E" opacity="0.6"/>
    <circle cx="46" cy="13" r="4" fill="#28CA41" opacity="0.6"/>
    <text x="70" y="34" font-family="'SF Mono','JetBrains Mono','Fira Code',monospace" font-size="14">
      <tspan fill="#C792EA">const</tspan>
      <tspan fill="#E0E0E0"> data = </tspan>
      <tspan fill="#C792EA">await</tspan>
      <tspan fill="#E0E0E0"> client.</tspan>
      <tspan fill="#82AAFF">fetch</tspan>
      <tspan fill="#89DDFF">(</tspan>
      <tspan fill="#C3E88D">"https://api.example/premium"</tspan>
      <tspan fill="#89DDFF">)</tspan>
      <tspan fill="#546E7A">  // one line. that's it.</tspan>
    </text>
  </g>

  <!-- ============ BOTTOM ============ -->
  <text x="640" y="570" text-anchor="middle" font-family="'Inter',sans-serif" font-size="15" font-weight="500" fill="#4B5563">The first x402 implementation on TON blockchain</text>

  <text x="640" y="598" text-anchor="middle" font-family="'Inter',sans-serif" font-size="12" fill="#374151">
    <tspan>Open Source</tspan>
    <tspan fill="#2D3748"> &#183; </tspan>
    <tspan>MIT License</tspan>
    <tspan fill="#2D3748"> &#183; </tspan>
    <tspan>TypeScript Strict</tspan>
    <tspan fill="#2D3748"> &#183; </tspan>
    <tspan>Production Ready</tspan>
  </text>

  <!-- Separator line -->
  <line x1="520" y1="555" x2="760" y2="555" stroke="url(#accent)" stroke-width="1" opacity="0.2"/>

  <!-- Bottom gradient fade -->
  <rect x="0" y="615" width="1280" height="25" fill="url(#bg)" opacity="0.6"/>
</svg>
